<?xml version="1.0" encoding="utf-8"?>
<!-- Generator: Adobe Illustrator 21.0.0, SVG Export Plug-In . SVG Version: 6.00 Build 0)  -->
<svg version="1.1" id="Layer_1" xmlns="http://www.w3.org/2000/svg" xmlns:xlink="http://www.w3.org/1999/xlink" x="0px" y="0px"
	 viewBox="0 0 65.6 65.7" style="enable-background:new 0 0 65.6 65.7;" xml:space="preserve">
<path d="M62.5,62.5H43.8V43.7h18.8V62.5z M62.5,40.6H43.8c-1.7,0-3.1,1.4-3.1,3.1v18.8c0,1.7,1.4,3.1,3.1,3.1h18.8
	c1.7,0,3.1-1.4,3.1-3.1V43.7C65.6,42,64.2,40.6,62.5,40.6z M21.9,62.5H3.1V43.8h18.8V62.5z M21.9,40.7H3.1c-1.7,0-3.1,1.4-3.1,3.1
	v18.8c0,1.7,1.4,3.1,3.1,3.1h18.8c1.7,0,3.1-1.4,3.1-3.1V43.8C25,42.1,23.6,40.7,21.9,40.7z M62.5,21.9H43.8V3.1h18.8V21.9z M62.5,0
	H43.8c-1.7,0-3.1,1.4-3.1,3.1v18.8c0,1.7,1.4,3.1,3.1,3.1h18.8c1.7,0,3.1-1.4,3.1-3.1V3.1C65.6,1.4,64.2,0,62.5,0z M21.9,21.9H3.1
	V3.1h18.8V21.9z M21.9,0H3.1C1.4,0,0,1.4,0,3.1v18.8C0,23.6,1.4,25,3.1,25h18.8c1.7,0,3.1-1.4,3.1-3.1V3.1C25,1.4,23.6,0,21.9,0z"/>
</svg>
