<?xml version="1.0" encoding="utf-8"?>
<!-- Generator: Adobe Illustrator 21.0.0, SVG Export Plug-In . SVG Version: 6.00 Build 0)  -->
<svg version="1.1" id="Layer_1" xmlns="http://www.w3.org/2000/svg" xmlns:xlink="http://www.w3.org/1999/xlink" x="0px" y="0px"
	 viewBox="0 0 75 75" style="enable-background:new 0 0 75 75;" xml:space="preserve">
<rect x="7.3" y="14.1" width="24.2" height="2.4"/>
<rect x="7.3" y="21.3" width="24.2" height="2.4"/>
<rect x="7.3" y="28.6" width="24.2" height="2.4"/>
<rect x="7.3" y="35.8" width="24.2" height="2.4"/>
<rect x="7.3" y="42.7" width="24.2" height="2.4"/>
<rect x="7.3" y="49.9" width="24.2" height="2.4"/>
<path d="M72.6,64.4H42.2c-1.2,0-2.5,0.4-3.4,1.2v-59c-0.2-2,1.4-3.7,3.4-3.7h30.4V64.4z M32.8,64.4H2.4V2.9h30.4
	c2,0,3.6,1.7,3.4,3.7v58.9C35.3,64.8,34.1,64.4,32.8,64.4z M42.2,0.5L42.2,0.5c-1.8,0-3.5,0.8-4.7,2.2c-1.2-1.4-2.9-2.2-4.7-2.2H0
	v66.3h32.8c0.9,0,1.7,0.3,2.2,0.9c0.2,0.2,0.4,0.5,0.5,0.7c0.4,0.8,0.6,1.6,0.7,2.4v3.6h2.4v-3.6c0.1-0.8,0.3-1.7,0.7-2.4
	c0.1-0.3,0.3-0.5,0.5-0.7c0.6-0.7,1.4-1,2.2-1H75V0.5H42.2z"/>
<rect x="43.6" y="14.1" width="24.2" height="2.4"/>
<rect x="43.6" y="21.3" width="24.2" height="2.4"/>
<rect x="43.6" y="28.6" width="24.2" height="2.4"/>
<rect x="43.6" y="35.8" width="24.2" height="2.4"/>
<rect x="43.6" y="42.7" width="24.2" height="2.4"/>
<rect x="43.6" y="49.9" width="24.2" height="2.4"/>
</svg>
